{
    "asset" : {
        "generator" : "Khronos glTF Blender I/O v1.7.33",
        "version" : "2.0"
    },
    "scene" : 0,
    "scenes" : [
        {
            "name" : "Scene",
            "nodes" : [
                0
            ]
        }
    ],
    "nodes" : [
        {
            "mesh" : 0,
            "name" : "lod2",
            "scale" : [
                21,
                64.5,
                21
            ]
        }
    ],
    "materials" : [
        {
            "doubleSided" : true,
            "name" : "Material",
            "pbrMetallicRoughness" : {
                "baseColorFactor" : [
                    0.800000011920929,
                    0.800000011920929,
                    0.800000011920929,
                    1
                ],
                "metallicFactor" : 0,
                "roughnessFactor" : 0.4000000059604645
            }
        }
    ],
    "meshes" : [
        {
            "name" : "Cube.073",
            "primitives" : [
                {
                    "attributes" : {
                        "POSITION" : 0,
                        "NORMAL" : 1,
                        "TEXCOORD_0" : 2
                    },
                    "indices" : 3,
                    "material" : 0
                }
            ]
        }
    ],
    "accessors" : [
        {
            "bufferView" : 0,
            "componentType" : 5126,
            "count" : 5526,
            "max" : [
                6.374192714691162,
                3.51765775680542,
                6.004994869232178
            ],
            "min" : [
                -6.374171257019043,
                0,
                -4.342611789703369
            ],
            "type" : "VEC3"
        },
        {
            "bufferView" : 1,
            "componentType" : 5126,
            "count" : 5526,
            "type" : "VEC3"
        },
        {
            "bufferView" : 2,
            "componentType" : 5126,
            "count" : 5526,
            "type" : "VEC2"
        },
        {
            "bufferView" : 3,
            "componentType" : 5123,
            "count" : 10377,
            "type" : "SCALAR"
        }
    ],
    "bufferViews" : [
        {
            "buffer" : 0,
            "byteLength" : 66312,
            "byteOffset" : 0
        },
        {
            "buffer" : 0,
            "byteLength" : 66312,
            "byteOffset" : 66312
        },
        {
            "buffer" : 0,
            "byteLength" : 44208,
            "byteOffset" : 132624
        },
        {
            "buffer" : 0,
            "byteLength" : 20754,
            "byteOffset" : 176832
        }
    ],
    "buffers" : [
        {
            "byteLength" : 197588,
            "uri" : "data:application/octet-stream;base64,"
        }
    ]
}
